HIERARCHY
ROOT Hips
{
	OFFSET -3.958830 18.904000 13.208200
	CHANNELS 6 Xposition Yposition Zposition Zrotation Yrotation Xrotation 
	JOINT LHipJoint
	{
		OFFSET 0.000000 0.000000 0.000000
		CHANNELS 3 Zrotation Yrotation Xrotation
		JOINT LeftUpLeg
		{
			OFFSET 1.800000 -1.400000 0.085000
			CHANNELS 3 Zrotation Yrotation Xrotation
			JOINT LeftLeg
			{
				OFFSET 2.215000 -6.000000 0.000000
				CHANNELS 3 Zrotation Yrotation Xrotation
				JOINT LeftFoot
				{
					OFFSET 2.500000 -6.900000 0.000000
					CHANNELS 3 Zrotation Yrotation Xrotation
					JOINT LeftToeBase
					{
						OFFSET 0.200000 -0.500000 1.950000
						CHANNELS 3 Zrotation Yrotation Xrotation
						End Site
						{
							OFFSET 0.000000 0.000000 0.000000
						}
					}
				}
			}
		}
	}
	JOINT RHipJoint
	{
		OFFSET 0.000000 0.000000 0.000000
		CHANNELS 3 Zrotation Yrotation Xrotation
		JOINT RightUpLeg
		{
			OFFSET -1.800000 -1.400000 0.085000
			CHANNELS 3 Zrotation Yrotation Xrotation
			JOINT RightLeg
			{
				OFFSET -2.215000 -6.000000 0.000000
				CHANNELS 3 Zrotation Yrotation Xrotation
				JOINT RightFoot
				{
					OFFSET -2.500000 -6.900000 0.000000
					CHANNELS 3 Zrotation Yrotation Xrotation
					JOINT RightToeBase
					{
						OFFSET -0.200000 -0.500000 1.950000
						CHANNELS 3 Zrotation Yrotation Xrotation
						End Site
						{
							OFFSET 0.000000 0.000000 0.000000
						}
					}
				}
			}
		}
	}
	JOINT LowerBack
	{
		OFFSET 0.000000 0.000000 0.000000
		CHANNELS 3 Zrotation Yrotation Xrotation
		JOINT Spine
		{
			OFFSET -0.087000 1.940000 -0.288900
			CHANNELS 3 Zrotation Yrotation Xrotation
			JOINT Spine1
			{
				OFFSET 0.000000 1.950000 0.060000
				CHANNELS 3 Zrotation Yrotation Xrotation
				JOINT Neck
				{
					OFFSET 0.000000 0.000000 0.000000
					CHANNELS 3 Zrotation Yrotation Xrotation
					JOINT Neck1
					{
						OFFSET 0.000000 1.600000 0.340000
						CHANNELS 3 Zrotation Yrotation Xrotation
						JOINT Head
						{
							OFFSET 0.000000 1.667000 -0.240000
							CHANNELS 3 Zrotation Yrotation Xrotation
							End Site
							{
								OFFSET 0.000000 0.000000 0.000000
							}
						}
					}
				}
				JOINT LeftShoulder
				{
					OFFSET 0.000000 0.000000 0.000000
					CHANNELS 3 Zrotation Yrotation Xrotation
					JOINT LeftArm
					{
						OFFSET 2.700000 1.550000 -0.730000
						CHANNELS 3 Zrotation Yrotation Xrotation
						JOINT LeftForeArm
						{
							OFFSET 5.450000 0.000000 0.000000
							CHANNELS 3 Zrotation Yrotation Xrotation
							JOINT LeftHand
							{
								OFFSET 3.450000 0.000000 0.000000
								CHANNELS 3 Zrotation Yrotation Xrotation
								JOINT LeftHandIndex1
								{
									OFFSET 0.750000 0.000000 0.000000
									CHANNELS 3 Zrotation Yrotation Xrotation
									End Site
									{
										OFFSET 0.000000 0.000000 0.000000
									}
								}
							}
						}
					}
				}
				JOINT RightShoulder
				{
					OFFSET 0.000000 0.000000 0.000000
					CHANNELS 3 Zrotation Yrotation Xrotation
					JOINT RightArm
					{
						OFFSET -2.700000 1.550000 -0.730000
						CHANNELS 3 Zrotation Yrotation Xrotation
						JOINT RightForeArm
						{
							OFFSET -5.450000 0.000000 0.000000
							CHANNELS 3 Zrotation Yrotation Xrotation
							JOINT RightHand
							{
								OFFSET -3.450000 0.000000 0.000000
								CHANNELS 3 Zrotation Yrotation Xrotation
								JOINT RightHandIndex1
								{
									OFFSET -0.750000 0.000000 0.000000
									CHANNELS 3 Zrotation Yrotation Xrotation
									End Site
									{
										OFFSET 0.000000 0.000000 0.000000
									}
								}
							}
						}
					}
				}
			}
		}
	}
}
MOTION
Frames: 8
Frame Time: 0.016667
0.321860 17.387990 -1.508720 -4.914093 16.114188 7.561427 -14.816318 11.907986 2.058802 3.952903 -1.294042 -15.883794 -1.901712 4.357236 12.836004 -1.292792 4.066207 3.662318 -0.234680 -0.546560 -0.451810 18.730939 -11.615850 3.339280 -3.736927 3.254050 -21.041514 9.095629 -3.207265 2.337921 0.383697 -3.461362 3.414035 0.194840 1.383230 0.156090 -4.996869 2.849704 -6.440908 11.882988 2.323307 -1.705848 -5.954283 1.526611 12.061900 3.510106 2.735978 -8.291257 6.873391 -9.220557 16.247692 -7.613900 -9.381230 3.023100 -1.982436 5.508534 5.306124 -59.836805 17.684278 -11.540508 -60.076011 -10.847761 0.238243 -4.524908 2.925762 0.032460 0.940020 -0.900090 0.272170 -4.702632 -4.903377 2.655548 58.645487 22.574205 8.669024 93.543291 85.518729 71.179553 3.668443 3.863249 -0.810050 0.764060 0.583540 -0.039260 
0.305380 17.359430 -1.509480 -4.827991 16.178736 7.429899 -14.815163 11.963824 2.085461 3.823228 -1.289507 -15.870473 -1.810005 4.345864 12.945949 -1.242701 4.043713 3.661144 -0.240530 -0.547100 -0.484970 18.719421 -11.650408 3.292289 -3.894668 3.163656 -20.997863 9.206937 -3.461334 3.679689 0.390179 -3.507655 3.396604 0.173950 1.379720 0.181640 -4.992940 2.766974 -6.441710 11.736369 2.295971 -1.605922 -5.738985 1.472691 12.165479 3.445146 2.763832 -8.348517 6.836935 -8.979297 16.493023 -7.380110 -9.278280 3.694010 -2.875630 4.969167 5.418075 -58.891421 17.582117 -11.336522 -61.179171 -11.746873 0.762029 -4.513152 3.010310 -0.001320 0.946400 -0.905030 0.279320 -3.601584 -4.460104 2.741897 57.194617 22.384748 12.264274 -96.663549 89.072034 -114.376472 3.570423 2.958625 -0.768040 0.712780 0.582730 -0.018470 
0.276670 17.296440 -1.510880 -4.728781 16.295318 7.082080 -14.812429 12.097153 2.119250 3.563882 -1.262847 -16.138212 -1.166639 4.330073 13.898245 -1.198007 3.993706 3.654888 -0.217830 -0.505450 -0.483280 18.693470 -11.756464 3.186154 -4.238373 3.032698 -21.007552 9.339641 -4.084024 7.245931 0.383949 -3.593667 3.368523 0.170960 1.332230 0.173820 -4.986381 2.639014 -6.411768 11.408246 2.307777 -1.079853 -4.797858 1.394967 11.922073 3.190876 2.832354 -8.474059 6.819165 -8.956862 16.887680 -7.250620 -9.179920 3.793780 -5.083220 3.986242 5.445122 -56.666617 17.326182 -10.599932 -63.458347 -13.470279 1.963202 -4.459980 3.088064 -0.013750 0.920520 -0.884720 0.285140 -0.849964 -3.607849 2.840040 53.295223 21.491850 11.976453 -105.221635 85.734802 -119.004649 2.984574 1.238105 -0.726790 0.676330 0.552650 -0.011150 
0.235710 17.235330 -1.507330 -4.329952 16.057175 7.111406 -14.828471 12.206114 2.160581 2.594157 -1.405977 -17.506107 0.255791 4.247719 16.322873 -1.167741 4.015679 3.637766 -0.137810 -0.403950 -0.440190 18.658218 -11.833832 3.092602 -4.943462 3.221105 -21.501832 10.173860 -5.043724 12.359215 0.333375 -3.909378 3.213802 0.221320 1.327010 0.210500 -4.924888 2.511957 -6.334401 10.467334 2.424894 -0.634826 -3.524640 1.358221 10.982441 2.912762 2.807245 -8.106704 6.874930 -8.998014 16.241298 -7.356350 -9.087710 3.724750 -8.246401 3.656818 5.070997 -53.438552 16.879080 -9.079233 -65.137723 -15.248827 3.465605 -4.455509 3.200853 -0.058430 0.930620 -0.866250 0.322450 2.858354 -3.234888 2.305954 49.500424 20.291394 9.197643 -114.074093 85.762379 -126.265194 2.272465 -0.741141 -0.675690 0.651480 0.495730 0.015970 
0.196650 17.195460 -1.508100 -4.180396 15.435079 6.974379 -14.848162 12.293798 2.228504 1.785075 -1.637024 -20.175695 1.922328 4.458475 20.934325 -1.126079 4.366466 3.514441 -0.183980 -0.445290 -0.487290 18.635359 -11.866477 3.009159 -4.942725 3.666230 -21.900322 10.097261 -6.090638 18.527042 0.305479 -4.389253 3.053203 0.211830 1.402280 0.199690 -4.860602 2.336927 -6.301063 10.157640 2.420448 -0.019903 -2.774394 1.358070 9.719011 2.597129 2.712892 -7.527115 6.712682 -8.643758 15.990151 -7.197920 -8.925220 4.412000 -11.492904 2.958600 4.736801 -50.609792 15.784741 -7.675479 -65.024979 -16.879397 4.762151 -4.528422 3.197902 -0.092710 0.977530 -0.911760 0.331210 6.663264 -2.493602 1.487478 46.657490 18.545837 3.707326 -130.992109 89.920664 -142.752961 1.634361 -2.034234 -0.704250 0.694500 0.523050 0.033700 
0.150980 17.192570 -1.513940 -3.816841 14.358445 6.572835 -14.874595 12.249236 2.449598 0.821491 -2.177279 -24.318614 3.750010 5.042298 28.484245 -0.973430 5.169539 3.139667 -0.176610 -0.452010 -0.451720 18.624075 -11.813499 2.943458 -4.957522 4.223077 -21.664084 9.941199 -7.149513 24.378364 0.166065 -4.948772 2.831441 0.171370 1.306620 0.178360 -4.785070 2.206419 -6.433540 9.911871 2.440724 1.628722 -2.424369 1.625835 7.785026 2.428454 2.557153 -6.882185 6.277024 -8.258945 16.870575 -6.699930 -8.521590 3.455790 -14.897135 2.488819 3.982010 -48.958537 14.616178 -7.302974 -59.719423 -14.826400 3.093569 -4.471598 3.127507 -0.006910 0.889350 -0.845420 0.305800 10.211004 -1.619660 1.130901 45.173986 16.557326 0.518749 43.657592 86.187716 30.853622 1.605259 -2.050079 -0.691430 0.666900 0.509640 0.003660 
0.111890 17.197000 -1.531940 -4.049736 12.035100 5.634168 -14.861861 12.034996 2.822753 0.689410 -2.840752 -29.127706 5.007590 6.154764 37.464093 -0.611893 6.511160 2.546771 -0.169870 -0.462110 -0.421850 18.669788 -11.704137 2.909800 -4.295183 5.090378 -20.972300 9.204780 -8.079690 30.520227 -0.060088 -5.597439 2.567145 0.066850 1.144060 0.200760 -4.818117 2.252889 -6.791204 11.271602 2.798089 3.992018 -3.013769 2.525495 6.293162 2.360106 2.146184 -6.935989 5.245022 -7.692188 19.129096 -5.506640 -8.320630 2.125600 -16.419411 1.386679 3.670181 -50.087129 12.885235 -7.792575 -52.845876 -13.312187 1.700997 -4.354354 3.092236 0.097760 0.740340 -0.710360 0.274700 11.523755 0.124850 1.669587 45.582243 14.666450 -3.075896 37.025431 81.306203 23.231333 1.643103 -2.004623 -0.597730 0.561090 0.484770 -0.002850 
0.065890 17.189390 -1.550060 -4.341471 8.995059 5.025691 -14.847103 11.734209 3.262128 1.430145 -3.434307 -33.844430 5.178743 7.601701 44.562247 -0.335756 7.905720 1.990871 -0.254660 -0.598890 -0.416390 18.728894 -11.554496 2.883889 -3.466154 6.000604 -20.360074 7.841281 -8.516326 35.509635 -0.214677 -6.123175 2.378138 -0.062060 1.062910 0.197030 -4.859137 2.364222 -7.190354 12.556545 3.481448 6.100261 -3.691657 3.853016 4.930127 2.383447 1.735669 -7.260724 4.254532 -6.971911 21.668555 -4.992570 -7.742430 1.448460 -16.377926 0.681625 3.291747 -52.738430 10.820756 -8.136493 -45.771053 -12.533856 0.875153 -4.352319 2.944926 0.213690 0.655060 -0.647360 0.196500 11.083561 1.542852 2.559981 48.329626 13.017077 -6.424698 28.385720 74.693128 14.519079 1.641020 -1.828977 -0.596940 0.526110 0.542530 -0.049320 
